<?xml version="1.0" standalone="no"?>
<!DOCTYPE svg PUBLIC "-//W3C//DTD SVG 1.1//EN" "http://www.w3.org/Graphics/SVG/1.1/DTD/svg11.dtd" >
<svg>
<metadata>
Created by FontForge 20090622 at Wed Jun 20 11:01:12 2018
 By deploy user
Copyright 1990 as an unpublished work by Bitstream Inc.  All rights reserved.  Confidential.
</metadata>
<defs>
<font id="AlternateGothicNo2BT-Regular" horiz-adv-x="500" >
  <font-face 
    font-family="Alternate Gothic No.2"
    font-weight="500"
    font-stretch="normal"
    units-per-em="1000"
    panose-1="0 0 0 0 0 0 0 0 0 0"
    ascent="800"
    descent="-200"
    x-height="521"
    cap-height="706"
    bbox="-135 -236 1000 903"
    underline-thickness="65"
    underline-position="-50"
    unicode-range="U+0020-U+FB02"
  />
<missing-glyph horiz-adv-x="203" 
 />
    <glyph glyph-name=".notdef" horiz-adv-x="203" 
 />
    <glyph glyph-name=".null" horiz-adv-x="0" 
 />
    <glyph glyph-name="nonmarkingreturn" horiz-adv-x="333" 
 />
    <glyph glyph-name="space" unicode=" " horiz-adv-x="203" 
 />
    <glyph glyph-name="exclam" unicode="!" horiz-adv-x="215" 
d="M55 0v111h104v-111h-104zM74 204l-23 502h112l-23 -502h-66z" />
    <glyph glyph-name="quotedbl" unicode="&#x22;" horiz-adv-x="314" 
d="M42 701h80v-272h-80v272zM193 701h80v-272h-80v272z" />
    <glyph glyph-name="numbersign" unicode="#" horiz-adv-x="769" 
d="M359 713h93l-75 -213h122l76 213h93l-75 -213h142l-29 -84h-143l-44 -123h151l-30 -84h-150l-76 -212h-93l76 212h-123l-77 -212h-93l76 212h-146l30 84h145l44 123h-154l30 84h154zM346 416l-44 -124h125l44 124h-125z" />
    <glyph glyph-name="dollar" unicode="$" horiz-adv-x="406" 
d="M171 -15q-103 19 -138 105l73 66q20 -51 65 -71v234q-132 96 -132 215q0 70 37 121.5t95 63.5v86h59v-85q73 -10 121 -80l-64 -65q-22 38 -57 49v-215q76 -55 110 -109t34 -129q0 -76 -40.5 -127.5t-103.5 -59.5v-84h-59v85zM230 84q20 7 33 33t13 63q0 58 -46 99v-195z
M171 455v165q-37 -23 -37 -78q0 -47 37 -87z" />
    <glyph glyph-name="percent" unicode="%" horiz-adv-x="518" 
d="M227 473q0 -62 -28.5 -95t-79.5 -33q-108 0 -108 130v127q0 56 29 87t81 31q49 0 77.5 -32t28.5 -88v-127zM150 455v162q0 17 -8.5 27t-22.5 10q-13 0 -22.5 -10.5t-9.5 -26.5v-162q0 -20 9.5 -31.5t22.5 -11.5q31 0 31 43zM53 0l319 706h86l-319 -706h-86zM506 113
q0 -62 -28 -95t-80 -33q-108 0 -108 130v127q0 56 29.5 87t81.5 31q48 0 76.5 -32t28.5 -88v-127zM430 95v161q0 17 -9 27.5t-23 10.5q-13 0 -22 -10.5t-9 -26.5v-162q0 -20 9 -32t22 -12q32 0 32 44z" />
    <glyph glyph-name="ampersand" unicode="&#x26;" horiz-adv-x="441" 
d="M298 43q-49 -58 -123 -58q-67 0 -108.5 46t-41.5 122q0 93 84 198q-49 112 -49 202q0 75 38.5 121t98.5 46q56 0 90 -39.5t34 -108.5q0 -55 -23.5 -103t-77.5 -122q31 -66 73 -133q24 45 38 120l91 -24q-11 -88 -64 -179q22 -31 54 -41v-107q-66 6 -114 60zM154 255
q-30 -49 -30 -92q0 -31 16.5 -49.5t42.5 -18.5q32 0 51 28q-36 42 -80 132zM178 434q55 81 55 142q0 32 -11.5 51t-29.5 19q-17 0 -30 -23t-13 -64q0 -61 29 -125z" />
    <glyph glyph-name="quotesingle" unicode="'" horiz-adv-x="163" 
d="M42 701h80v-272h-80v272z" />
    <glyph glyph-name="parenleft" unicode="(" horiz-adv-x="275" 
d="M262 -64l-69 -42q-143 210 -143 432q0 209 115 394h94q-109 -178 -109 -389q0 -212 112 -395z" />
    <glyph glyph-name="parenright" unicode=")" horiz-adv-x="275" 
d="M13 -64q113 185 113 395t-110 389h95q114 -183 114 -394q0 -222 -143 -432z" />
    <glyph glyph-name="asterisk" unicode="*" horiz-adv-x="385" 
d="M192 515l-62 -121l-63 47l96 96l-133 22l24 74l120 -62l-18 135h73l-18 -135l120 62l24 -74l-133 -22l96 -96l-63 -47z" />
    <glyph glyph-name="plus" unicode="+" horiz-adv-x="833" 
d="M375 596h83v-257h251v-81h-251v-258h-83v258h-251v81h251v257z" />
    <glyph glyph-name="comma" unicode="," horiz-adv-x="215" 
d="M56 0v111h104v-111l-56 -125h-48l36 125h-36z" />
    <glyph glyph-name="hyphen" unicode="-" horiz-adv-x="310" 
d="M39 223v74h232v-74h-232z" />
    <glyph glyph-name="period" unicode="." horiz-adv-x="215" 
d="M56 0v111h104v-111h-104z" />
    <glyph glyph-name="slash" unicode="/" horiz-adv-x="244" 
d="M-75 -93l286 813h79l-286 -813h-79z" />
    <glyph glyph-name="zero" unicode="0" horiz-adv-x="406" 
d="M41 543q0 83 43.5 130.5t121.5 47.5q73 0 116.5 -48t43.5 -133v-362q0 -93 -42.5 -143t-120.5 -50t-120 50t-42 146v362zM147 151q0 -31 16.5 -48.5t41.5 -17.5t39.5 17t14.5 49v413q0 25 -15.5 40.5t-40.5 15.5q-24 0 -40 -15.5t-16 -39.5v-414z" />
    <glyph glyph-name="one" unicode="1" horiz-adv-x="259" 
d="M-5 548v71q83 30 121 87h73v-706h-108v548h-86z" />
    <glyph glyph-name="two" unicode="2" horiz-adv-x="395" 
d="M30 0v102q222 307 222 438q0 40 -13.5 62.5t-35.5 22.5q-31 0 -43.5 -23t-13.5 -75l-1 -26h-106v13q0 99 43.5 152.5t121.5 53.5q67 0 108 -45t41 -124q0 -88 -49 -187.5t-157 -261.5h197v-102h-314z" />
    <glyph glyph-name="three" unicode="3" horiz-adv-x="372" 
d="M28 204h103v-29q0 -89 51 -89q32 0 45 24.5t13 76.5q0 71 -19 100.5t-71 29.5h-14v99h17q42 0 59.5 26.5t17.5 83.5q0 92 -46 92q-27 0 -39 -18.5t-12 -58.5q0 -17 1 -27h-103v6q0 95 41 147t112 52q142 0 142 -200q0 -117 -61 -152q42 -20 58 -58.5t16 -108.5
q0 -105 -39 -159.5t-112 -54.5q-75 0 -117.5 51.5t-42.5 148.5v18z" />
    <glyph glyph-name="four" unicode="4" horiz-adv-x="399" 
d="M25 172v93l181 441h102v-441h66v-93h-66v-172h-102v172h-181zM206 265v258l-88 -258h88z" />
    <glyph glyph-name="five" unicode="5" horiz-adv-x="384" 
d="M41 197h98v-36q0 -80 56 -80q50 0 50 70v180q0 58 -46 58q-43 0 -60 -57l-89 4l12 370h266l4 -102h-184l-9 -166q47 46 98 46q50 0 78.5 -38t28.5 -111v-179q0 -80 -42 -125.5t-114 -45.5q-147 0 -147 191v21z" />
    <glyph glyph-name="six" unicode="6" horiz-adv-x="406" 
d="M370 178q0 -92 -43 -142.5t-121 -50.5t-120 50t-42 146v362q0 83 44 130.5t122 47.5q73 0 116.5 -48.5t43.5 -132.5v-22h-107v46q0 25 -15.5 40.5t-40.5 15.5q-24 0 -40 -15t-16 -40v-174q42 45 100 45q56 0 87.5 -35.5t31.5 -101.5v-121zM151 297v-146q0 -31 16.5 -48.5
t41.5 -17.5t39.5 17t14.5 49v137q0 26 -12.5 40.5t-34.5 14.5q-38 0 -65 -46z" />
    <glyph glyph-name="seven" unicode="7" horiz-adv-x="317" 
d="M6 604v102h296v-77l-132 -629h-105l130 604h-189z" />
    <glyph glyph-name="eight" unicode="8" horiz-adv-x="372" 
d="M99 376q-59 42 -59 160q0 90 37.5 137t109.5 47q70 0 107.5 -46.5t37.5 -136.5q0 -118 -58 -162q69 -36 69 -185q0 -100 -40.5 -152.5t-115.5 -52.5q-158 0 -158 214q0 132 70 177zM189 85q29 0 40.5 27t11.5 87q0 62 -11 90t-41 28q-33 0 -45.5 -24.5t-12.5 -81.5
q0 -67 12 -96.5t46 -29.5zM188 429q26 0 36.5 23.5t10.5 78.5q0 57 -10.5 80.5t-38.5 23.5q-29 0 -39 -24t-10 -79q0 -56 10.5 -79.5t40.5 -23.5z" />
    <glyph glyph-name="nine" unicode="9" horiz-adv-x="406" 
d="M35 166v22h107v-47q0 -25 15.5 -40.5t40.5 -15.5q24 0 40 15.5t16 40.5v174q-39 -40 -85 -40q-138 0 -138 218q0 228 168 228q78 0 120 -50t42 -146v-362q0 -83 -44 -130.5t-122 -47.5q-73 0 -116.5 48.5t-43.5 132.5zM254 409v146q0 31 -16 48t-42 17q-54 0 -54 -72v-99
q0 -83 54 -83q38 0 58 43z" />
    <glyph glyph-name="colon" unicode=":" horiz-adv-x="215" 
d="M56 199v111h104v-111h-104zM56 0v111h104v-111h-104z" />
    <glyph glyph-name="semicolon" unicode=";" horiz-adv-x="215" 
d="M56 0v111h104v-111l-56 -125h-48l36 125h-36zM56 199v111h104v-111h-104z" />
    <glyph glyph-name="less" unicode="&#x3c;" horiz-adv-x="833" 
d="M704 574v-90l-456 -186l456 -186v-89l-575 236v78z" />
    <glyph glyph-name="equal" unicode="=" horiz-adv-x="833" 
d="M124 440h585v-82h-585v82zM124 238h585v-81h-585v81z" />
    <glyph glyph-name="greater" unicode="&#x3e;" horiz-adv-x="833" 
d="M129 574l575 -237v-78l-575 -236v89l456 186l-456 186v90z" />
    <glyph glyph-name="question" unicode="?" horiz-adv-x="308" 
d="M89 0v116h105v-116h-105zM99 208q0 5 -0.5 14.5t-0.5 14.5q0 100 31 183q11 28 28.5 61.5t28 56.5t10.5 40q0 21 -11 34t-30 13q-36 0 -66 -75l-86 35q39 135 150 135q66 0 103.5 -36.5t37.5 -99.5q0 -38 -16 -76t-40.5 -79.5t-34.5 -65.5q-20 -49 -20 -119q0 -23 1 -36
h-85z" />
    <glyph glyph-name="at" unicode="@" horiz-adv-x="1000" 
d="M602 345q-14 86 -90 86q-62 0 -106 -62.5t-44 -151.5q0 -48 22 -74t63 -26q43 0 79 32.5t49 84.5zM573 138q-52 -82 -148 -82q-74 0 -113.5 42t-39.5 122q0 115 68 193.5t162 78.5q84 0 121 -69l27 52h75l-72 -286q-4 -20 -4 -24q0 -19 13 -30t34 -11q53 0 104 56
q72 77 72 192q0 123 -90.5 200.5t-239.5 77.5q-135 0 -230 -61q-89 -56 -136.5 -142.5t-47.5 -192.5q0 -152 102.5 -243.5t272.5 -91.5q167 0 300 93l33 -48q-147 -111 -329 -111q-189 0 -309 93q-150 114 -150 309q0 163 100 286q146 178 397 178q170 0 278 -84
q129 -99 129 -262q0 -164 -122 -263q-69 -55 -155 -55q-102 0 -102 81v2z" />
    <glyph glyph-name="A" unicode="A" horiz-adv-x="386" 
d="M150 253h83l-37 295h-7zM6 0l116 706h142l116 -706h-112l-22 153h-110l-23 -153h-107z" />
    <glyph glyph-name="B" unicode="B" horiz-adv-x="424" 
d="M56 0v706h144q87 0 134.5 -48.5t47.5 -135.5q0 -104 -76 -161q85 -48 85 -172q0 -97 -42.5 -143t-131.5 -46h-161zM164 102h47q68 0 68 101q0 58 -18.5 82.5t-61.5 24.5h-35v-208zM164 412h44q30 0 46.5 25t16.5 72q0 51 -17.5 73t-54.5 22h-35v-192z" />
    <glyph glyph-name="C" unicode="C" horiz-adv-x="415" 
d="M43 181v362q0 83 45 130.5t126 47.5q75 0 119.5 -48t44.5 -133v-68h-112v78q0 73 -56 73t-56 -73v-394q0 -74 56 -74t56 74v96h112v-74q0 -93 -44 -143t-124 -50q-167 0 -167 196z" />
    <glyph glyph-name="D" unicode="D" horiz-adv-x="430" 
d="M56 0v706h155q90 0 133 -47.5t43 -146.5v-315q0 -102 -40.5 -149.5t-130.5 -47.5h-160zM164 104h55q57 0 57 74v340q0 43 -21 63.5t-66 20.5h-25v-498z" />
    <glyph glyph-name="E" unicode="E" horiz-adv-x="368" 
d="M56 0v706h284v-102h-175v-185h126v-102h-126v-211h175v-106h-284z" />
    <glyph glyph-name="F" unicode="F" horiz-adv-x="334" 
d="M56 0v706h284v-102h-175v-185h126v-102h-126v-317h-109z" />
    <glyph glyph-name="G" unicode="G" horiz-adv-x="416" 
d="M43 181v362q0 83 45 130.5t126 47.5q157 0 157 -181v-65h-105v75q0 73 -56 73t-56 -73v-394q0 -74 56 -74t56 74v110h-66v90h171v-356h-52l-21 49q-35 -64 -105 -64q-73 0 -111.5 50t-38.5 146z" />
    <glyph glyph-name="H" unicode="H" horiz-adv-x="438" 
d="M56 706h108v-288h109v288h109v-706h-109v316h-109v-316h-108v706z" />
    <glyph glyph-name="I" unicode="I" horiz-adv-x="220" 
d="M56 0v706h111v-706h-111z" />
    <glyph glyph-name="J" unicode="J" horiz-adv-x="231" 
d="M-6 0v109q20 -2 22 -2q57 0 57 59v12v528h109v-519q0 -187 -127 -187h-61z" />
    <glyph glyph-name="K" unicode="K" horiz-adv-x="410" 
d="M56 0v706h109v-298q10 34 15 46l108 252h108l-121 -241l135 -465h-113l-92 355l-40 -80v-275h-109z" />
    <glyph glyph-name="L" unicode="L" horiz-adv-x="338" 
d="M56 0v706h108v-604h169v-102h-277z" />
    <glyph glyph-name="M" unicode="M" horiz-adv-x="561" 
d="M56 0v706h145l71 -391q9 -48 9 -106q0 48 10 105l68 392h147v-706h-102v446q0 40 8 123q-15 -92 -17 -100l-89 -469h-54l-85 469l-8 48l-6 36t-3 16q7 -74 7 -123v-446h-101z" />
    <glyph glyph-name="N" unicode="N" horiz-adv-x="458" 
d="M56 0v706h98l138 -422q9 -27 21 -75q-12 67 -12 95v402h102v-706h-102l-133 390q-17 50 -23 77q12 -75 12 -98v-369h-101z" />
    <glyph glyph-name="O" unicode="O" horiz-adv-x="421" 
d="M43 543q0 83 45 130.5t126 47.5q75 0 119.5 -48t44.5 -133v-362q0 -93 -44 -143t-124 -50q-81 0 -124 50t-43 146v362zM266 156v394q0 73 -56 73t-56 -73v-394q0 -74 56 -74t56 74z" />
    <glyph glyph-name="P" unicode="P" horiz-adv-x="405" 
d="M55 0v706h160q89 0 129.5 -48t40.5 -156q0 -102 -40 -158.5t-106 -56.5h-75v-287h-109zM164 388h43q40 0 53.5 24.5t13.5 87.5q0 60 -15 82t-56 22h-39v-216z" />
    <glyph glyph-name="Q" unicode="Q" horiz-adv-x="420" 
d="M363 82q11 -22 40 -22h5v-108h-12q-74 0 -104 57q-41 -24 -89 -24q-75 0 -117.5 50.5t-42.5 145.5v362q0 83 45 130.5t126 47.5q75 0 119.5 -48t44.5 -133v-362q0 -61 -15 -96zM266 156v394q0 73 -56 73t-56 -73v-394q0 -74 56 -74t56 74z" />
    <glyph glyph-name="R" unicode="R" horiz-adv-x="417" 
d="M164 297v-297h-109v706h160q89 0 129.5 -48t40.5 -156q0 -65 -16 -106.5t-53 -67.5l80 -328h-113l-67 297h-52zM164 604v-205h43q39 0 53 23.5t14 83.5q0 56 -15.5 77t-55.5 21h-39z" />
    <glyph glyph-name="S" unicode="S" horiz-adv-x="392" 
d="M23 179l104 16q6 -105 72 -105q30 0 48.5 18.5t18.5 49.5q0 28 -15.5 56t-28.5 42t-54 55q-49 49 -72.5 76t-43 68.5t-19.5 85.5q0 76 49.5 126.5t119.5 50.5q68 0 112.5 -46.5t50.5 -128.5l-106 -15q-3 47 -16.5 67.5t-43.5 20.5q-26 0 -42 -17.5t-16 -47.5t17 -60.5
t33.5 -48t58.5 -58.5q44 -43 66.5 -70t39 -67t16.5 -87q0 -77 -48 -126.5t-121 -49.5q-80 0 -128 51.5t-52 143.5z" />
    <glyph glyph-name="T" unicode="T" horiz-adv-x="323" 
d="M-6 604v102h336v-102h-114v-604h-109v604h-113z" />
    <glyph glyph-name="U" unicode="U" horiz-adv-x="432" 
d="M48 706h111v-547q0 -31 16 -49t42 -18q25 0 40 17.5t15 49.5v547h111v-528q0 -93 -43.5 -143t-123.5 -50q-81 0 -124.5 50t-43.5 146v525z" />
    <glyph glyph-name="V" unicode="V" horiz-adv-x="384" 
d="M10 706h106l65 -418q12 -76 12 -147v-13q3 94 12 160l63 418h107l-125 -706h-114z" />
    <glyph glyph-name="W" unicode="W" horiz-adv-x="550" 
d="M6 706h104l48 -418q7 -61 7 -111v-14q7 124 9 139l54 404h93l58 -418q7 -49 7 -125q6 110 9 139l45 404h103l-110 -706h-91l-60 410q-7 49 -7 125q-6 -115 -9 -139l-58 -396h-91z" />
    <glyph glyph-name="X" unicode="X" horiz-adv-x="373" 
d="M-2 0l129 359l-127 347h113l66 -208h5l70 208h111l-123 -338l134 -368h-114l-71 230h-4l-77 -230h-112z" />
    <glyph glyph-name="Y" unicode="Y" horiz-adv-x="343" 
d="M-12 706h110l71 -282h7l67 282h111l-127 -413v-293h-109v280z" />
    <glyph glyph-name="Z" unicode="Z" horiz-adv-x="378" 
d="M31 0v109l195 488h-179v109h297v-102l-197 -495h197v-109h-313z" />
    <glyph glyph-name="bracketleft" unicode="[" horiz-adv-x="275" 
d="M69 -91v811h173v-90h-75v-630h75v-91h-173z" />
    <glyph glyph-name="backslash" unicode="\" horiz-adv-x="244" 
d="M319 -93h-80l-286 813h80z" />
    <glyph glyph-name="bracketright" unicode="]" horiz-adv-x="275" 
d="M206 -91h-172v91h75v630h-75v90h172v-811z" />
    <glyph glyph-name="asciicircum" unicode="^" horiz-adv-x="1000" 
d="M447 713h106l242 -274h-101l-194 194l-195 -194h-101z" />
    <glyph glyph-name="underscore" unicode="_" 
d="M0 -152h500v-84h-500v84z" />
    <glyph glyph-name="grave" unicode="`" 
d="M228 570l-92 108h123l48 -108h-79z" />
    <glyph glyph-name="a" unicode="a" horiz-adv-x="356" 
d="M217 59q-48 -66 -109 -66q-40 0 -62.5 29.5t-22.5 85.5q0 76 44 126.5t147 105.5v56q0 48 -33 48q-21 0 -32.5 -12t-11.5 -32v-29h-98q0 3 -0.5 7t-0.5 7q0 66 42 107.5t104 41.5q130 0 130 -163v-222q0 -109 9 -149h-97q-7 19 -9 59zM214 130v135q-50 -32 -70.5 -61
t-20.5 -71q0 -51 30 -51q16 0 33 12.5t28 35.5z" />
    <glyph glyph-name="b" unicode="b" horiz-adv-x="362" 
d="M47 0v706h98v-227q40 49 86 49q94 0 94 -131v-289q0 -57 -23 -86t-65 -29q-55 0 -92 47v-40h-98zM145 99q23 -24 46 -24q34 0 34 47v269q0 54 -40 54q-20 0 -40 -21v-325z" />
    <glyph glyph-name="c" unicode="c" horiz-adv-x="356" 
d="M37 147v230q0 74 41 115.5t105 41.5t101.5 -40t37.5 -113v-41h-100v42q0 61 -42 61q-23 0 -33 -14.5t-10 -46.5v-232q0 -39 9 -56t33 -17q28 0 35.5 16t7.5 57v40h100v-43q0 -161 -145 -161q-63 0 -101.5 42.5t-38.5 118.5z" />
    <glyph glyph-name="d" unicode="d" horiz-adv-x="362" 
d="M217 41q-38 -48 -93 -48q-87 0 -87 115v289q0 131 94 131q46 0 86 -49v227h97v-706h-97v41zM217 99v325q-22 22 -41 22q-17 0 -28 -14t-11 -41v-269q0 -46 34 -46q24 0 46 23z" />
    <glyph glyph-name="e" unicode="e" horiz-adv-x="356" 
d="M37 147v234q0 68 41.5 110.5t105.5 42.5q66 0 102 -39t36 -114v-133h-185v-98q0 -39 9 -56t33 -17q28 0 35.5 16t7.5 57v36h100v-39q0 -161 -145 -161q-65 0 -102.5 42.5t-37.5 118.5zM137 329h85v53q0 61 -42 61q-23 0 -33 -14.5t-10 -46.5v-53z" />
    <glyph glyph-name="f" unicode="f" horiz-adv-x="233" 
d="M60 0v440h-55v81h55v61q0 124 113 124q29 0 56 -8v-85q-22 5 -26 5q-25 0 -35.5 -10.5t-10.5 -33.5v-53h62v-81h-62v-440h-97z" />
    <glyph glyph-name="g" unicode="g" horiz-adv-x="345" 
d="M94 153q-35 22 -49 50t-14 73v104q0 75 35.5 114.5t97.5 39.5q65 0 113 -58q21 47 73 52v-85q-14 3 -20 3q-25 0 -37 -20q1 -19 1 -35v-116q0 -68 -32.5 -104t-92.5 -36q-8 0 -26 2q-23 -17 -23 -33q0 -9 4.5 -14.5t15.5 -7.5t22.5 -3t32 -2.5t37.5 -3.5q63 -9 93 -37.5
t30 -79.5q0 -123 -188 -123q-79 0 -121 22.5t-42 60.5q0 26 22 48q19 19 65 37q-60 15 -60 60q0 27 15 47t48 45zM148 -12q-37 -18 -37 -41q0 -17 19.5 -29t50.5 -12q39 0 62.5 12t23.5 30q0 22 -28 30.5t-91 9.5zM205 270v121q0 53 -43 53q-42 0 -42 -53v-121q0 -53 42 -53
q43 0 43 53z" />
    <glyph glyph-name="h" unicode="h" horiz-adv-x="369" 
d="M47 0v706h98v-242q55 64 111 64q68 0 68 -92v-436h-97v393q0 23 -5 32t-21 9q-26 0 -56 -39v-395h-98z" />
    <glyph glyph-name="i" unicode="i" horiz-adv-x="192" 
d="M47 0v521h98v-521h-98zM47 609v97h98v-97h-98z" />
    <glyph glyph-name="j" unicode="j" horiz-adv-x="197" 
d="M148 521v-561q0 -124 -113 -124q-28 0 -55 8v84q15 -4 29 -4q19 0 30.5 11.5t11.5 26.5v559h97zM51 609v97h97v-97h-97z" />
    <glyph glyph-name="k" unicode="k" horiz-adv-x="347" 
d="M47 0v706h98v-376l89 191h104l-97 -175l103 -346h-98l-68 258l-33 -61v-197h-98z" />
    <glyph glyph-name="l" unicode="l" horiz-adv-x="192" 
d="M47 0v706h98v-706h-98z" />
    <glyph glyph-name="m" unicode="m" horiz-adv-x="548" 
d="M47 0v521h98v-54q51 61 109 61q56 0 69 -61q49 60 108 60q72 0 72 -88v-439h-98v393q0 23 -5 32t-21 9q-26 0 -56 -39v-395h-90v393q0 23 -5.5 32t-22.5 9q-27 0 -60 -39v-395h-98z" />
    <glyph glyph-name="n" unicode="n" horiz-adv-x="369" 
d="M47 0v521h98v-57q55 64 111 64q68 0 68 -92v-436h-97v393q0 23 -5 32t-21 9q-26 0 -56 -39v-395h-98z" />
    <glyph glyph-name="o" unicode="o" horiz-adv-x="355" 
d="M37 402q0 60 39 96t105 36q60 0 98.5 -37.5t38.5 -97.5v-269q0 -67 -37.5 -105t-103.5 -38q-63 0 -101.5 38.5t-38.5 106.5v270zM137 122q0 -45 40 -45q19 0 30.5 12t11.5 33v284q0 17 -11.5 27.5t-30.5 10.5q-17 0 -28.5 -10.5t-11.5 -27.5v-284z" />
    <glyph glyph-name="p" unicode="p" horiz-adv-x="362" 
d="M47 -164v685h98v-41q37 48 92 48q42 0 65 -29.5t23 -86.5v-288q0 -131 -94 -131q-46 0 -86 49v-206h-98zM145 422v-325q21 -22 40 -22q40 0 40 55v269q0 46 -34 46q-24 0 -46 -23z" />
    <glyph glyph-name="q" unicode="q" horiz-adv-x="362" 
d="M37 124v288q0 116 87 116q55 0 93 -48v41h97v-685h-97v206q-40 -49 -86 -49q-94 0 -94 131zM137 130q0 -55 39 -55q19 0 41 22v325q-22 23 -46 23q-34 0 -34 -46v-269z" />
    <glyph glyph-name="r" unicode="r" horiz-adv-x="263" 
d="M47 0v521h98v-71q37 77 103 77h10v-109q-14 7 -32 7q-38 0 -59.5 -22.5t-21.5 -61.5v-341h-98z" />
    <glyph glyph-name="s" unicode="s" horiz-adv-x="335" 
d="M14 141l94 21q6 -44 21 -64.5t43 -20.5q20 0 32.5 12.5t12.5 33.5q0 19 -14.5 39.5t-31 34l-55.5 43.5q-48 36 -69.5 71t-21.5 81q0 65 39.5 103.5t103.5 38.5q60 0 97.5 -36t41.5 -99l-92 -22q-11 66 -52 66q-19 0 -30.5 -12.5t-11.5 -33.5q0 -12 4 -22.5t15 -22.5
t19 -19t29 -23.5l31 -24.5q50 -42 72 -76t22 -81q0 -65 -40 -103.5t-105 -38.5q-62 0 -103 40.5t-51 114.5z" />
    <glyph glyph-name="t" unicode="t" horiz-adv-x="266" 
d="M73 110v330h-60v81h60v150h97v-150h72v-81h-72v-321q0 -45 43 -45q9 0 29 5v-85q-27 -8 -56 -8q-113 0 -113 124z" />
    <glyph glyph-name="u" unicode="u" horiz-adv-x="369" 
d="M322 521v-521h-97v57q-56 -65 -112 -65q-68 0 -68 93v436h97v-393v-7q0 -35 26 -35q10 0 26.5 10t30.5 29v396h97z" />
    <glyph glyph-name="v" unicode="v" horiz-adv-x="300" 
d="M0 521h90l60 -321h5l49 321h96l-101 -521h-89z" />
    <glyph glyph-name="w" unicode="w" horiz-adv-x="459" 
d="M0 521h93l39 -250q7 -48 10 -127q1 57 13 127l39 250h74l43 -250q11 -62 14 -127v21q0 56 6 106l38 250h90l-89 -521h-85l-45 254q-6 33 -9 119q-4 -81 -10 -120l-38 -253h-86z" />
    <glyph glyph-name="x" unicode="x" horiz-adv-x="303" 
d="M-2 0l99 272l-92 249h97l47 -140h5l46 140h100l-96 -247l99 -274h-95l-55 160h-4l-56 -160h-95z" />
    <glyph glyph-name="y" unicode="y" horiz-adv-x="319" 
d="M9 521h91l60 -334h4l49 334h97l-110 -557q-14 -69 -46.5 -98.5t-95.5 -29.5q-21 0 -39 1v93h18q40 0 58 18t21 64z" />
    <glyph glyph-name="z" unicode="z" horiz-adv-x="310" 
d="M26 0v87l159 343h-147v91h248v-86l-152 -342h152v-93h-260z" />
    <glyph glyph-name="braceleft" unicode="{" 
d="M427 721v-87q-4 0 -12 0.5t-11 0.5q-56 0 -73.5 -22t-17.5 -83v-118q0 -72 -20 -105.5t-79 -47.5q59 -14 79 -48t20 -105v-117q0 -62 17.5 -84t74.5 -22q3 0 10.5 0.5t11.5 0.5v-86h-31q-93 0 -133 24q-31 18 -40.5 51t-9.5 95v121q0 70 -25.5 99t-87.5 29q-4 0 -11 -0.5
t-10 -0.5v87q3 0 10 -0.5t11 -0.5q62 0 87.5 29t25.5 98v121q0 63 9.5 95.5t40.5 51.5q41 24 142 24h22z" />
    <glyph glyph-name="bar" unicode="|" 
d="M207 764h87v-1000h-87v1000z" />
    <glyph glyph-name="braceright" unicode="}" 
d="M74 721h22q100 0 141 -24q31 -19 40.5 -52t9.5 -95v-121q0 -69 25 -98t88 -29q3 0 10 0.5t11 0.5v-87q-3 0 -10 0.5t-11 0.5q-62 0 -87.5 -29t-25.5 -99v-121q0 -62 -9.5 -94.5t-40.5 -51.5q-40 -24 -141 -24h-22v86q4 0 11.5 -0.5t10.5 -0.5q56 0 73.5 22t17.5 84v117
q0 71 20.5 105t79.5 48q-60 14 -80 48t-20 105v118q0 61 -17.5 83t-72.5 22q-3 0 -11 -0.5t-12 -0.5v87z" />
    <glyph glyph-name="asciitilde" unicode="~" horiz-adv-x="833" 
d="M747 383v-90q-100 -69 -186 -69q-44 0 -93 17q-10 3 -39 13.5t-41.5 14l-35 9.5t-41 8.5t-36.5 2.5q-79 0 -188 -77v91q103 70 189 70q58 0 143 -29q7 -2 24 -8t24.5 -9t22.5 -7.5t24.5 -6.5t22.5 -3.5t25 -1.5q81 0 185 75z" />
    <glyph glyph-name="exclamdown" unicode="&#xa1;" horiz-adv-x="215" 
d="M55 706h104v-111h-104v111zM74 502h66l23 -502h-112z" />
    <glyph glyph-name="cent" unicode="&#xa2;" horiz-adv-x="406" 
d="M61 240v234q0 120 112 149v119h60v-117q61 -15 87 -51t26 -100v-41h-100v42q0 61 -42 61q-23 0 -33 -14.5t-10 -46.5v-233q0 -39 9 -55.5t33 -16.5q28 0 35.5 16t7.5 56v41h100v-43q0 -70 -27 -108.5t-86 -49.5v-119h-60v118q-112 30 -112 159z" />
    <glyph glyph-name="sterling" unicode="&#xa3;" horiz-adv-x="406" 
d="M51 0v94q40 8 64.5 38.5t24.5 73.5q0 29 -13 81h-68v90h42q-42 104 -42 167q0 77 44.5 126.5t109.5 49.5q79 0 121 -55.5t42 -162.5v-14h-108q-2 70 -14 100.5t-42 30.5q-20 0 -32 -17.5t-12 -48.5q0 -48 35 -176h120v-90h-100q4 -42 4 -59q0 -69 -40 -126h191v-102h-327
z" />
    <glyph glyph-name="currency" unicode="&#xa4;" horiz-adv-x="606" 
d="M82 698l99 -99q53 40 122 40q70 0 123 -40l99 99l46 -45l-100 -100q39 -52 39 -121t-39 -121l100 -100l-46 -45l-99 100q-55 -40 -122 -40q-70 0 -123 40l-99 -100l-45 45l99 100q-39 52 -39 121q0 68 39 121l-99 100zM304 574q-58 0 -100 -42t-42 -100q0 -59 41.5 -100
t100.5 -41t100.5 41t41.5 100q0 58 -42 100t-100 42z" />
    <glyph glyph-name="yen" unicode="&#xa5;" horiz-adv-x="343" 
d="M-6 706h104l69 -288h7l63 288h107l-77 -260h78v-44h-91l-19 -65h110v-44h-123v-293h-104v293h-121v44h108l-19 65h-89v44h75z" />
    <glyph glyph-name="brokenbar" unicode="&#xa6;" 
d="M207 699h87v-370h-87v370zM207 199h87v-370h-87v370z" />
    <glyph glyph-name="section" unicode="&#xa7;" horiz-adv-x="432" 
d="M63 15l64 51q47 -56 80 -56q23 0 36.5 13.5t13.5 35.5q0 21 -12.5 40t-41.5 50l-93 98q-41 43 -60 75t-19 68q0 43 26.5 73.5t73.5 38.5q-46 55 -46 101q0 52 36 84.5t92 32.5q89 0 146 -76l-63 -48q-44 49 -75 49q-21 0 -33.5 -13.5t-12.5 -34.5q0 -25 58 -83l84 -84
q82 -84 82 -150q0 -89 -100 -110q48 -51 48 -112q0 -60 -36.5 -93.5t-96.5 -33.5q-91 0 -151 84zM118 400q0 -33 69 -102l36 -35.5t25 -18.5t29 -10q15 0 25 11t10 27q0 25 -46 76q-46 50 -69.5 70.5t-42.5 20.5q-15 0 -25.5 -11t-10.5 -28z" />
    <glyph glyph-name="dieresis" unicode="&#xa8;" 
d="M139 575v98h89v-98h-89zM271 575v98h90v-98h-90z" />
    <glyph glyph-name="copyright" unicode="&#xa9;" horiz-adv-x="833" 
d="M416 718q151 0 257 -106q105 -105 105 -255q0 -153 -104 -254q-110 -108 -258 -108q-147 0 -254 107t-107 255q0 146 108 256q103 105 253 105zM417 665q-130 0 -217 -89q-91 -93 -91 -219t91 -217t217 -91q125 0 219 92q89 87 89 216t-89 218q-90 90 -219 90zM589 441
h-81q-5 36 -29.5 55.5t-63.5 19.5q-47 0 -75 -41.5t-28 -117.5q0 -75 28.5 -115t79.5 -40q39 0 63 21.5t29 60.5h81q-4 -65 -52 -105.5t-124 -40.5q-89 0 -141.5 58t-52.5 158q0 102 54 162t142 60q72 0 118.5 -37.5t51.5 -97.5z" />
    <glyph glyph-name="ordfeminine" unicode="&#xaa;" horiz-adv-x="267" 
d="M163 383q-36 -46 -82 -46q-30 0 -47 21t-17 60q0 53 33 88t111 74v39q0 34 -25 34q-15 0 -24 -8.5t-9 -22.5v-20h-74v9q0 47 31 76t78 29q98 0 98 -114v-156q0 -74 6 -104h-72q-5 11 -7 41zM161 433v94q-38 -23 -53.5 -42.5t-15.5 -49.5q0 -36 23 -36q27 0 46 34z" />
    <glyph glyph-name="guillemotleft" unicode="&#xab;" horiz-adv-x="361" 
d="M171 259l69 155h84l-68 -155l68 -154h-84zM37 259l71 155h84l-68 -155l68 -154h-84z" />
    <glyph glyph-name="logicalnot" unicode="&#xac;" horiz-adv-x="833" 
d="M124 421h585v-245h-81v164h-504v81z" />
    <glyph glyph-name="registered" unicode="&#xae;" horiz-adv-x="833" 
d="M416 718q153 0 259 -108q103 -105 103 -253q0 -153 -106 -256q-109 -106 -256 -106q-149 0 -256 109q-105 107 -105 253q0 149 109 258q103 103 252 103zM417 665q-127 0 -215 -88q-93 -95 -93 -220t89 -216q92 -92 214 -92q130 0 223 90q90 87 90 213q0 131 -88 221
q-92 92 -220 92zM269 566h156q171 0 171 -110q0 -92 -90 -112l90 -183h-97l-80 169h-63v-169h-87v405zM356 511v-127h57q49 0 71.5 14.5t22.5 47.5q0 65 -98 65h-53z" />
    <glyph glyph-name="macron" unicode="&#xaf;" 
d="M153 592v64h194v-64h-194z" />
    <glyph glyph-name="degree" unicode="&#xb0;" horiz-adv-x="329" 
d="M165 713q59 0 101.5 -42.5t42.5 -102.5q0 -59 -42.5 -101.5t-102.5 -42.5t-101.5 41.5t-41.5 102.5t42 103t102 42zM165 659q-38 0 -64.5 -26.5t-26.5 -63.5t27 -64t64 -27q38 0 64 27t26 64t-26.5 63.5t-63.5 26.5z" />
    <glyph glyph-name="plusminus" unicode="&#xb1;" horiz-adv-x="833" 
d="M375 589h83v-163h251v-81h-251v-163h-83v163h-251v81h251v163zM124 89h585v-82h-585v82z" />
    <glyph glyph-name="twosuperior" unicode="&#xb2;" horiz-adv-x="261" 
d="M20 282v61q146 184 146 263q0 51 -32 51q-20 0 -28.5 -14t-9.5 -45v-15h-70v7q0 60 29 92t80 32q44 0 71 -27t27 -74q0 -53 -32.5 -113.5t-103.5 -156.5h130v-61h-207z" />
    <glyph glyph-name="threesuperior" unicode="&#xb3;" horiz-adv-x="246" 
d="M18 404h68v-17q0 -53 34 -53q21 0 29.5 14t8.5 46q0 43 -12.5 60.5t-46.5 17.5h-9v60h11q28 0 39.5 16t11.5 50q0 55 -31 55q-33 0 -33 -46v-17h-68v4q0 57 27 88t74 31q94 0 94 -120q0 -70 -40 -91q28 -12 38.5 -35.5t10.5 -64.5q0 -63 -26 -95.5t-74 -32.5
q-50 0 -78 31t-28 89v10z" />
    <glyph glyph-name="acute" unicode="&#xb4;" 
d="M273 570h-79l47 108h124z" />
    <glyph glyph-name="mu" unicode="&#xb5;" horiz-adv-x="590" 
d="M100 528h112l-61 -310q-6 -28 -6 -51q0 -96 89 -96q61 0 95.5 44.5t53.5 141.5l53 271h110l-71 -361q-9 -47 -9 -65q0 -17 7.5 -24.5t25.5 -7.5q11 0 17 1l-16 -78q-31 -8 -73 -8q-73 0 -73 61v7q-42 -69 -124 -69q-76 0 -115 53l-48 -247h-112z" />
    <glyph glyph-name="paragraph" unicode="&#xb6;" 
d="M473 722v-48h-57v-674h-63v674h-83v-674h-63v383q-83 3 -131.5 49.5t-48.5 119.5q0 76 51.5 123t139.5 47h255z" />
    <glyph glyph-name="periodcentered" unicode="&#xb7;" horiz-adv-x="215" 
d="M45 362q0 26 18.5 44.5t43.5 18.5q26 0 44.5 -18.5t18.5 -44.5t-18.5 -44.5t-44.5 -18.5q-25 0 -43.5 18.5t-18.5 44.5z" />
    <glyph glyph-name="cedilla" unicode="&#xb8;" 
d="M146 -117q34 -8 64 -8q40 0 40 25q0 29 -54 29h-5l30 71h34l-17 -38h8q47 0 72.5 -16.5t25.5 -45.5q0 -64 -117 -64q-39 0 -81 9v38z" />
    <glyph glyph-name="onesuperior" unicode="&#xb9;" horiz-adv-x="171" 
d="M-3 611v42q53 17 80 53h48v-424h-72v329h-56z" />
    <glyph glyph-name="ordmasculine" unicode="&#xba;" horiz-adv-x="266" 
d="M28 623q0 42 29.5 67.5t78.5 25.5q45 0 74 -26.5t29 -68.5v-188q0 -47 -28.5 -73.5t-77.5 -26.5q-47 0 -76 27t-29 74v189zM103 427q0 -31 30 -31q31 0 31 31v199q0 12 -8.5 19.5t-22.5 7.5q-13 0 -21.5 -7.5t-8.5 -19.5v-199z" />
    <glyph glyph-name="guillemotright" unicode="&#xbb;" horiz-adv-x="361" 
d="M190 259l-69 -154h-84l68 154l-68 155h84zM324 259l-71 -154h-85l68 154l-68 155h85z" />
    <glyph glyph-name="onequarter" unicode="&#xbc;" horiz-adv-x="550" 
d="M-3 617v40q52 16 76 48h46v-395h-68v307h-54zM28 0l319 706h86l-319 -706h-86zM314 96v52l114 247h64v-247h42v-52h-42v-96h-64v96h-114zM428 148v145l-56 -145h56z" />
    <glyph glyph-name="onehalf" unicode="&#xbd;" horiz-adv-x="547" 
d="M-3 617v40q52 16 76 48h46v-395h-68v307h-54zM28 0l319 706h86l-319 -706h-86zM317 0v57q140 172 140 245q0 48 -31 48q-20 0 -27.5 -13t-8.5 -42l-1 -14h-66v7q0 55 27.5 85t76.5 30q42 0 67.5 -25t25.5 -69q0 -50 -30.5 -105.5t-98.5 -146.5h124v-57h-198z" />
    <glyph glyph-name="threequarters" unicode="&#xbe;" horiz-adv-x="621" 
d="M18 424h65v-16q0 -50 32 -50q36 0 36 57q0 40 -12 56.5t-45 16.5h-8v55h10q27 0 38 15t11 47q0 51 -29 51q-32 0 -32 -43v-15h-64v3q0 53 25.5 82.5t70.5 29.5q89 0 89 -112q0 -66 -38 -85q26 -12 36.5 -33.5t10.5 -60.5q0 -120 -96 -120q-47 0 -73.5 29t-26.5 83v10z
M99 0l319 706h86l-319 -706h-86zM385 96v52l114 247h64v-247h42v-52h-42v-96h-64v96h-114zM499 148v145l-56 -145h56z" />
    <glyph glyph-name="questiondown" unicode="&#xbf;" horiz-adv-x="308" 
d="M219 705v-116h-105v116h105zM209 497q0 -5 0.5 -14.5t0.5 -14.5q0 -100 -31 -183q-11 -28 -28.5 -61.5t-28 -56.5t-10.5 -40q0 -21 11 -34.5t30 -13.5q36 0 66 75l86 -34q-39 -135 -151 -135q-66 0 -103 36.5t-37 99.5q0 38 15.5 75.5t40.5 79.5t34 66q21 53 21 122
q0 22 -1 33h85z" />
    <glyph glyph-name="Agrave" unicode="&#xc0;" horiz-adv-x="386" 
d="M150 253h83l-37 295h-7zM6 0l116 706h142l116 -706h-112l-22 153h-110l-23 -153h-107zM171 742l-92 108h123l48 -108h-79z" />
    <glyph glyph-name="Aacute" unicode="&#xc1;" horiz-adv-x="386" 
d="M150 253h83l-37 295h-7zM6 0l116 706h142l116 -706h-112l-22 153h-110l-23 -153h-107zM216 742h-79l47 108h124z" />
    <glyph glyph-name="Acircumflex" unicode="&#xc2;" horiz-adv-x="386" 
d="M150 253h83l-37 295h-7zM6 0l116 706h142l116 -706h-112l-22 153h-110l-23 -153h-107zM149 742h-79l75 108h96l75 -108h-79l-44 53z" />
    <glyph glyph-name="Atilde" unicode="&#xc3;" horiz-adv-x="386" 
d="M150 253h83l-37 295h-7zM6 0l116 706h142l116 -706h-112l-22 153h-110l-23 -153h-107zM317 846v-8q0 -42 -21 -66.5t-56 -24.5q-22 0 -52.5 15t-41.5 15q-25 0 -25 -27v-4h-52v8q0 42 21 66.5t56 24.5q22 0 52.5 -15t41.5 -15q25 0 25 27v4h52z" />
    <glyph glyph-name="Adieresis" unicode="&#xc4;" horiz-adv-x="386" 
d="M150 253h83l-37 295h-7zM6 0l116 706h142l116 -706h-112l-22 153h-110l-23 -153h-107zM82 747v98h89v-98h-89zM214 747v98h90v-98h-90z" />
    <glyph glyph-name="Aring" unicode="&#xc5;" horiz-adv-x="386" 
d="M150 253h83l-37 295h-7zM6 0l116 706h142l116 -706h-112l-22 153h-110l-23 -153h-107zM106 816q0 36 25.5 61.5t61.5 25.5t61.5 -25.5t25.5 -61.5q0 -37 -25.5 -62t-61.5 -25q-37 0 -62 25t-25 62zM160 816q0 -13 9.5 -22.5t23.5 -9.5t23.5 9t9.5 23t-9.5 23.5t-23.5 9.5
q-13 0 -23 -9.5t-10 -23.5z" />
    <glyph glyph-name="AE" unicode="&#xc6;" horiz-adv-x="558" 
d="M-30 0l219 706h339v-102h-178v-185h130v-102h-130v-211h178v-106h-283v169h-113l-46 -169h-116zM158 267h86v297h-7z" />
    <glyph glyph-name="Ccedilla" unicode="&#xc7;" horiz-adv-x="415" 
d="M43 181v362q0 83 45 130.5t126 47.5q75 0 119.5 -48t44.5 -133v-68h-112v78q0 73 -56 73t-56 -73v-394q0 -74 56 -74t56 74v96h112v-74q0 -93 -44 -143t-124 -50q-167 0 -167 196zM104 -117q34 -8 64 -8q40 0 40 25q0 29 -54 29h-5l30 71h34l-17 -38h8q47 0 72.5 -16.5
t25.5 -45.5q0 -64 -117 -64q-39 0 -81 9v38z" />
    <glyph glyph-name="Egrave" unicode="&#xc8;" horiz-adv-x="368" 
d="M56 0v706h284v-102h-175v-185h126v-102h-126v-211h175v-106h-284zM178 742l-92 108h123l48 -108h-79z" />
    <glyph glyph-name="Eacute" unicode="&#xc9;" horiz-adv-x="368" 
d="M56 0v706h284v-102h-175v-185h126v-102h-126v-211h175v-106h-284zM223 742h-79l47 108h124z" />
    <glyph glyph-name="Ecircumflex" unicode="&#xca;" horiz-adv-x="368" 
d="M56 0v706h284v-102h-175v-185h126v-102h-126v-211h175v-106h-284zM156 742h-79l75 108h96l75 -108h-79l-44 53z" />
    <glyph glyph-name="Edieresis" unicode="&#xcb;" horiz-adv-x="368" 
d="M56 0v706h284v-102h-175v-185h126v-102h-126v-211h175v-106h-284zM89 747v98h89v-98h-89zM221 747v98h90v-98h-90z" />
    <glyph glyph-name="Igrave" unicode="&#xcc;" horiz-adv-x="220" 
d="M56 0v706h111v-706h-111zM88 742l-92 108h123l48 -108h-79z" />
    <glyph glyph-name="Iacute" unicode="&#xcd;" horiz-adv-x="220" 
d="M56 0v706h111v-706h-111zM133 742h-79l47 108h124z" />
    <glyph glyph-name="Icircumflex" unicode="&#xce;" horiz-adv-x="220" 
d="M56 0v706h111v-706h-111zM66 742h-79l75 108h96l75 -108h-79l-44 53z" />
    <glyph glyph-name="Idieresis" unicode="&#xcf;" horiz-adv-x="220" 
d="M56 0v706h111v-706h-111zM-1 747v98h89v-98h-89zM131 747v98h90v-98h-90z" />
    <glyph glyph-name="Eth" unicode="&#xd0;" horiz-adv-x="434" 
d="M60 0v327h-55v81h55v298h156q90 0 133 -47.5t43 -146.5v-315q0 -102 -41 -149.5t-131 -47.5h-160zM169 104h55q57 0 57 74v340q0 43 -21 63.5t-66 20.5h-25v-194h56v-81h-56v-223z" />
    <glyph glyph-name="Ntilde" unicode="&#xd1;" horiz-adv-x="458" 
d="M56 0v706h98l138 -422q9 -27 21 -75q-12 67 -12 95v402h102v-706h-102l-133 390q-17 50 -23 77q12 -75 12 -98v-369h-101zM360 846v-8q0 -42 -21 -66.5t-56 -24.5q-22 0 -52.5 15t-41.5 15q-25 0 -25 -27v-4h-52v8q0 42 21 66.5t56 24.5q22 0 52.5 -15t41.5 -15
q25 0 25 27v4h52z" />
    <glyph glyph-name="Ograve" unicode="&#xd2;" horiz-adv-x="421" 
d="M43 543q0 83 45 130.5t126 47.5q75 0 119.5 -48t44.5 -133v-362q0 -93 -44 -143t-124 -50q-81 0 -124 50t-43 146v362zM266 156v394q0 73 -56 73t-56 -73v-394q0 -74 56 -74t56 74zM189 742l-92 108h123l48 -108h-79z" />
    <glyph glyph-name="Oacute" unicode="&#xd3;" horiz-adv-x="421" 
d="M43 543q0 83 45 130.5t126 47.5q75 0 119.5 -48t44.5 -133v-362q0 -93 -44 -143t-124 -50q-81 0 -124 50t-43 146v362zM266 156v394q0 73 -56 73t-56 -73v-394q0 -74 56 -74t56 74zM234 742h-79l47 108h124z" />
    <glyph glyph-name="Ocircumflex" unicode="&#xd4;" horiz-adv-x="421" 
d="M43 543q0 83 45 130.5t126 47.5q75 0 119.5 -48t44.5 -133v-362q0 -93 -44 -143t-124 -50q-81 0 -124 50t-43 146v362zM266 156v394q0 73 -56 73t-56 -73v-394q0 -74 56 -74t56 74zM167 742h-79l75 108h96l75 -108h-79l-44 53z" />
    <glyph glyph-name="Otilde" unicode="&#xd5;" horiz-adv-x="421" 
d="M43 543q0 83 45 130.5t126 47.5q75 0 119.5 -48t44.5 -133v-362q0 -93 -44 -143t-124 -50q-81 0 -124 50t-43 146v362zM266 156v394q0 73 -56 73t-56 -73v-394q0 -74 56 -74t56 74zM335 846v-8q0 -42 -21 -66.5t-56 -24.5q-22 0 -52.5 15t-41.5 15q-25 0 -25 -27v-4h-52
v8q0 42 21 66.5t56 24.5q22 0 52.5 -15t41.5 -15q25 0 25 27v4h52z" />
    <glyph glyph-name="Odieresis" unicode="&#xd6;" horiz-adv-x="421" 
d="M43 543q0 83 45 130.5t126 47.5q75 0 119.5 -48t44.5 -133v-362q0 -93 -44 -143t-124 -50q-81 0 -124 50t-43 146v362zM266 156v394q0 73 -56 73t-56 -73v-394q0 -74 56 -74t56 74zM100 747v98h89v-98h-89zM232 747v98h90v-98h-90z" />
    <glyph glyph-name="multiply" unicode="&#xd7;" horiz-adv-x="833" 
d="M197 580l224 -224l225 224l57 -57l-224 -225l224 -224l-57 -58l-225 225l-224 -225l-57 58l224 224l-224 225z" />
    <glyph glyph-name="Oslash" unicode="&#xd8;" horiz-adv-x="421" 
d="M30 -15l32 84q-19 42 -19 112v362q0 84 45 131t126 47q48 0 89 -24l8 23h79l-31 -85q19 -45 19 -95v-362q0 -93 -44 -143t-124 -50q-55 0 -95 25l-7 -25h-78zM150 572v-294l115 318q-16 33 -55 33q-26 0 -43 -16t-17 -41zM271 145v284l-116 -318q20 -34 57 -34
q26 0 42.5 18t16.5 50z" />
    <glyph glyph-name="Ugrave" unicode="&#xd9;" horiz-adv-x="432" 
d="M48 706h111v-547q0 -31 16 -49t42 -18q25 0 40 17.5t15 49.5v547h111v-528q0 -93 -43.5 -143t-123.5 -50q-81 0 -124.5 50t-43.5 146v525zM194 742l-92 108h123l48 -108h-79z" />
    <glyph glyph-name="Uacute" unicode="&#xda;" horiz-adv-x="432" 
d="M48 706h111v-547q0 -31 16 -49t42 -18q25 0 40 17.5t15 49.5v547h111v-528q0 -93 -43.5 -143t-123.5 -50q-81 0 -124.5 50t-43.5 146v525zM239 742h-79l47 108h124z" />
    <glyph glyph-name="Ucircumflex" unicode="&#xdb;" horiz-adv-x="432" 
d="M48 706h111v-547q0 -31 16 -49t42 -18q25 0 40 17.5t15 49.5v547h111v-528q0 -93 -43.5 -143t-123.5 -50q-81 0 -124.5 50t-43.5 146v525zM172 742h-79l75 108h96l75 -108h-79l-44 53z" />
    <glyph glyph-name="Udieresis" unicode="&#xdc;" horiz-adv-x="432" 
d="M48 706h111v-547q0 -31 16 -49t42 -18q25 0 40 17.5t15 49.5v547h111v-528q0 -93 -43.5 -143t-123.5 -50q-81 0 -124.5 50t-43.5 146v525zM105 747v98h89v-98h-89zM237 747v98h90v-98h-90z" />
    <glyph glyph-name="Yacute" unicode="&#xdd;" horiz-adv-x="343" 
d="M-12 706h110l71 -282h7l67 282h111l-127 -413v-293h-109v280zM195 742h-79l47 108h124z" />
    <glyph glyph-name="Thorn" unicode="&#xde;" horiz-adv-x="407" 
d="M55 0v706h109v-141h51q89 0 129.5 -48t40.5 -156q0 -102 -40 -159t-106 -57h-75v-145h-109zM164 247h43q40 0 53.5 24.5t13.5 87.5q0 60 -15 82t-56 22h-39v-216z" />
    <glyph glyph-name="germandbls" unicode="&#xdf;" horiz-adv-x="402" 
d="M-8 431v90h64v14t-0.5 11t-0.5 5q0 81 34.5 118t110.5 37q66 0 102 -34t36 -94q0 -73 -61 -100q52 -12 70.5 -42.5t18.5 -93.5v-179q0 -170 -117 -170q-35 0 -73 21v76q22 -13 35 -13q58 0 58 71v213q0 38 -13.5 54t-48.5 16h-31v90h29q17 0 28.5 14t11.5 34
q0 25 -12.5 39t-34.5 14q-45 0 -45 -51v-571h-97v431h-64z" />
    <glyph glyph-name="agrave" unicode="&#xe0;" horiz-adv-x="356" 
d="M217 59q-48 -66 -109 -66q-40 0 -62.5 29.5t-22.5 85.5q0 76 44 126.5t147 105.5v56q0 48 -33 48q-21 0 -32.5 -12t-11.5 -32v-29h-98q0 3 -0.5 7t-0.5 7q0 66 42 107.5t104 41.5q130 0 130 -163v-222q0 -109 9 -149h-97q-7 19 -9 59zM214 130v135q-50 -32 -70.5 -61
t-20.5 -71q0 -51 30 -51q16 0 33 12.5t28 35.5zM164 570l-92 108h123l48 -108h-79z" />
    <glyph glyph-name="aacute" unicode="&#xe1;" horiz-adv-x="356" 
d="M217 59q-48 -66 -109 -66q-40 0 -62.5 29.5t-22.5 85.5q0 76 44 126.5t147 105.5v56q0 48 -33 48q-21 0 -32.5 -12t-11.5 -32v-29h-98q0 3 -0.5 7t-0.5 7q0 66 42 107.5t104 41.5q130 0 130 -163v-222q0 -109 9 -149h-97q-7 19 -9 59zM214 130v135q-50 -32 -70.5 -61
t-20.5 -71q0 -51 30 -51q16 0 33 12.5t28 35.5zM209 570h-79l47 108h124z" />
    <glyph glyph-name="acircumflex" unicode="&#xe2;" horiz-adv-x="356" 
d="M217 59q-48 -66 -109 -66q-40 0 -62.5 29.5t-22.5 85.5q0 76 44 126.5t147 105.5v56q0 48 -33 48q-21 0 -32.5 -12t-11.5 -32v-29h-98q0 3 -0.5 7t-0.5 7q0 66 42 107.5t104 41.5q130 0 130 -163v-222q0 -109 9 -149h-97q-7 19 -9 59zM214 130v135q-50 -32 -70.5 -61
t-20.5 -71q0 -51 30 -51q16 0 33 12.5t28 35.5zM142 570h-79l75 108h96l75 -108h-79l-44 53z" />
    <glyph glyph-name="atilde" unicode="&#xe3;" horiz-adv-x="356" 
d="M217 59q-48 -66 -109 -66q-40 0 -62.5 29.5t-22.5 85.5q0 76 44 126.5t147 105.5v56q0 48 -33 48q-21 0 -32.5 -12t-11.5 -32v-29h-98q0 3 -0.5 7t-0.5 7q0 66 42 107.5t104 41.5q130 0 130 -163v-222q0 -109 9 -149h-97q-7 19 -9 59zM214 130v135q-50 -32 -70.5 -61
t-20.5 -71q0 -51 30 -51q16 0 33 12.5t28 35.5zM310 674v-8q0 -42 -21 -66.5t-56 -24.5q-22 0 -52.5 15t-41.5 15q-25 0 -25 -27v-4h-52v8q0 42 21 66.5t56 24.5q22 0 52.5 -15t41.5 -15q25 0 25 27v4h52z" />
    <glyph glyph-name="adieresis" unicode="&#xe4;" horiz-adv-x="356" 
d="M217 59q-48 -66 -109 -66q-40 0 -62.5 29.5t-22.5 85.5q0 76 44 126.5t147 105.5v56q0 48 -33 48q-21 0 -32.5 -12t-11.5 -32v-29h-98q0 3 -0.5 7t-0.5 7q0 66 42 107.5t104 41.5q130 0 130 -163v-222q0 -109 9 -149h-97q-7 19 -9 59zM214 130v135q-50 -32 -70.5 -61
t-20.5 -71q0 -51 30 -51q16 0 33 12.5t28 35.5zM75 575v98h89v-98h-89zM207 575v98h90v-98h-90z" />
    <glyph glyph-name="aring" unicode="&#xe5;" horiz-adv-x="356" 
d="M217 59q-48 -66 -109 -66q-40 0 -62.5 29.5t-22.5 85.5q0 76 44 126.5t147 105.5v56q0 48 -33 48q-21 0 -32.5 -12t-11.5 -32v-29h-98q0 3 -0.5 7t-0.5 7q0 66 42 107.5t104 41.5q130 0 130 -163v-222q0 -109 9 -149h-97q-7 19 -9 59zM214 130v135q-50 -32 -70.5 -61
t-20.5 -71q0 -51 30 -51q16 0 33 12.5t28 35.5zM102 644q0 36 25.5 61.5t61.5 25.5t61.5 -25.5t25.5 -61.5q0 -37 -25.5 -62t-61.5 -25q-37 0 -62 25t-25 62zM156 643q0 -13 9.5 -22.5t23.5 -9.5t23.5 9t9.5 23t-9.5 23.5t-23.5 9.5q-13 0 -23 -10t-10 -23z" />
    <glyph glyph-name="ae" unicode="&#xe6;" horiz-adv-x="535" 
d="M273 504q41 30 89 30q64 0 101.5 -39.5t37.5 -113.5v-133h-185v-98q0 -39 9 -56t34 -17q28 0 35.5 16t7.5 57v36h99v-39q0 -157 -140 -157q-44 0 -73.5 17t-54.5 58q-67 -75 -123 -75q-39 0 -62 31t-23 87q0 77 44 126.5t148 105.5v56q0 48 -34 48q-25 0 -35.5 -17.5
t-10.5 -55.5h-98v2q0 74 41.5 117.5t105.5 43.5q48 0 87 -30zM217 130v135q-51 -34 -71.5 -61.5t-20.5 -69.5q0 -52 29 -52q39 0 63 48zM316 329h86v53q0 62 -43 62t-43 -62v-53z" />
    <glyph glyph-name="ccedilla" unicode="&#xe7;" horiz-adv-x="356" 
d="M37 147v230q0 74 41 115.5t105 41.5t101.5 -40t37.5 -113v-41h-100v42q0 61 -42 61q-23 0 -33 -14.5t-10 -46.5v-232q0 -39 9 -56t33 -17q28 0 35.5 16t7.5 57v40h100v-43q0 -161 -145 -161q-63 0 -101.5 42.5t-38.5 118.5zM74 -117q34 -8 64 -8q40 0 40 25q0 29 -54 29
h-5l30 71h34l-17 -38h8q47 0 72.5 -16.5t25.5 -45.5q0 -64 -117 -64q-39 0 -81 9v38z" />
    <glyph glyph-name="egrave" unicode="&#xe8;" horiz-adv-x="356" 
d="M37 147v234q0 68 41.5 110.5t105.5 42.5q66 0 102 -39t36 -114v-133h-185v-98q0 -39 9 -56t33 -17q28 0 35.5 16t7.5 57v36h100v-39q0 -161 -145 -161q-65 0 -102.5 42.5t-37.5 118.5zM137 329h85v53q0 61 -42 61q-23 0 -33 -14.5t-10 -46.5v-53zM162 570l-92 108h123
l48 -108h-79z" />
    <glyph glyph-name="eacute" unicode="&#xe9;" horiz-adv-x="356" 
d="M37 147v234q0 68 41.5 110.5t105.5 42.5q66 0 102 -39t36 -114v-133h-185v-98q0 -39 9 -56t33 -17q28 0 35.5 16t7.5 57v36h100v-39q0 -161 -145 -161q-65 0 -102.5 42.5t-37.5 118.5zM137 329h85v53q0 61 -42 61q-23 0 -33 -14.5t-10 -46.5v-53zM207 570h-79l47 108h124
z" />
    <glyph glyph-name="ecircumflex" unicode="&#xea;" horiz-adv-x="356" 
d="M37 147v234q0 68 41.5 110.5t105.5 42.5q66 0 102 -39t36 -114v-133h-185v-98q0 -39 9 -56t33 -17q28 0 35.5 16t7.5 57v36h100v-39q0 -161 -145 -161q-65 0 -102.5 42.5t-37.5 118.5zM137 329h85v53q0 61 -42 61q-23 0 -33 -14.5t-10 -46.5v-53zM140 570h-79l75 108h96
l75 -108h-79l-44 53z" />
    <glyph glyph-name="edieresis" unicode="&#xeb;" horiz-adv-x="356" 
d="M37 147v234q0 68 41.5 110.5t105.5 42.5q66 0 102 -39t36 -114v-133h-185v-98q0 -39 9 -56t33 -17q28 0 35.5 16t7.5 57v36h100v-39q0 -161 -145 -161q-65 0 -102.5 42.5t-37.5 118.5zM137 329h85v53q0 61 -42 61q-23 0 -33 -14.5t-10 -46.5v-53zM73 575v98h89v-98h-89z
M205 575v98h90v-98h-90z" />
    <glyph glyph-name="igrave" unicode="&#xec;" horiz-adv-x="192" 
d="M47 0v521h98v-521h-98zM74 570l-92 108h123l48 -108h-79z" />
    <glyph glyph-name="iacute" unicode="&#xed;" horiz-adv-x="192" 
d="M47 0v521h98v-521h-98zM119 570h-79l47 108h124z" />
    <glyph glyph-name="icircumflex" unicode="&#xee;" horiz-adv-x="192" 
d="M47 0v521h98v-521h-98zM52 570h-79l75 108h96l75 -108h-79l-44 53z" />
    <glyph glyph-name="idieresis" unicode="&#xef;" horiz-adv-x="192" 
d="M47 0v521h98v-521h-98zM-15 575v98h89v-98h-89zM117 575v98h90v-98h-90z" />
    <glyph glyph-name="eth" unicode="&#xf0;" horiz-adv-x="355" 
d="M137 122q0 -45 40 -45q42 0 42 45v270q0 17 -11.5 27.5t-30.5 10.5q-17 0 -28.5 -10.5t-11.5 -27.5v-270zM37 378q0 60 39 96.5t105 36.5q7 0 17 -1q-17 38 -48 72l-80 -63l-26 38l75 59q-17 19 -53 55l45 49q31 -24 66 -59l74 59l28 -37l-70 -55q109 -122 109 -275v-223
q0 -67 -37.5 -105t-103.5 -38q-63 0 -101.5 38.5t-38.5 106.5v246z" />
    <glyph glyph-name="ntilde" unicode="&#xf1;" horiz-adv-x="369" 
d="M47 0v521h98v-57q55 64 111 64q68 0 68 -92v-436h-97v393q0 23 -5 32t-21 9q-26 0 -56 -39v-395h-98zM315 674v-8q0 -42 -21 -66.5t-56 -24.5q-22 0 -52.5 15t-41.5 15q-25 0 -25 -27v-4h-52v8q0 42 21 66.5t56 24.5q22 0 52.5 -15t41.5 -15q25 0 25 27v4h52z" />
    <glyph glyph-name="ograve" unicode="&#xf2;" horiz-adv-x="355" 
d="M37 402q0 60 39 96t105 36q60 0 98.5 -37.5t38.5 -97.5v-269q0 -67 -37.5 -105t-103.5 -38q-63 0 -101.5 38.5t-38.5 106.5v270zM137 122q0 -45 40 -45q19 0 30.5 12t11.5 33v284q0 17 -11.5 27.5t-30.5 10.5q-17 0 -28.5 -10.5t-11.5 -27.5v-284zM156 570l-92 108h123
l48 -108h-79z" />
    <glyph glyph-name="oacute" unicode="&#xf3;" horiz-adv-x="355" 
d="M37 402q0 60 39 96t105 36q60 0 98.5 -37.5t38.5 -97.5v-269q0 -67 -37.5 -105t-103.5 -38q-63 0 -101.5 38.5t-38.5 106.5v270zM137 122q0 -45 40 -45q19 0 30.5 12t11.5 33v284q0 17 -11.5 27.5t-30.5 10.5q-17 0 -28.5 -10.5t-11.5 -27.5v-284zM201 570h-79l47 108
h124z" />
    <glyph glyph-name="ocircumflex" unicode="&#xf4;" horiz-adv-x="355" 
d="M37 402q0 60 39 96t105 36q60 0 98.5 -37.5t38.5 -97.5v-269q0 -67 -37.5 -105t-103.5 -38q-63 0 -101.5 38.5t-38.5 106.5v270zM137 122q0 -45 40 -45q19 0 30.5 12t11.5 33v284q0 17 -11.5 27.5t-30.5 10.5q-17 0 -28.5 -10.5t-11.5 -27.5v-284zM134 570h-79l75 108h96
l75 -108h-79l-44 53z" />
    <glyph glyph-name="otilde" unicode="&#xf5;" horiz-adv-x="355" 
d="M37 402q0 60 39 96t105 36q60 0 98.5 -37.5t38.5 -97.5v-269q0 -67 -37.5 -105t-103.5 -38q-63 0 -101.5 38.5t-38.5 106.5v270zM137 122q0 -45 40 -45q19 0 30.5 12t11.5 33v284q0 17 -11.5 27.5t-30.5 10.5q-17 0 -28.5 -10.5t-11.5 -27.5v-284zM302 674v-8
q0 -42 -21 -66.5t-56 -24.5q-22 0 -52.5 15t-41.5 15q-25 0 -25 -27v-4h-52v8q0 42 21 66.5t56 24.5q22 0 52.5 -15t41.5 -15q25 0 25 27v4h52z" />
    <glyph glyph-name="odieresis" unicode="&#xf6;" horiz-adv-x="355" 
d="M37 402q0 60 39 96t105 36q60 0 98.5 -37.5t38.5 -97.5v-269q0 -67 -37.5 -105t-103.5 -38q-63 0 -101.5 38.5t-38.5 106.5v270zM137 122q0 -45 40 -45q19 0 30.5 12t11.5 33v284q0 17 -11.5 27.5t-30.5 10.5q-17 0 -28.5 -10.5t-11.5 -27.5v-284zM67 575v98h89v-98h-89z
M199 575v98h90v-98h-90z" />
    <glyph glyph-name="divide" unicode="&#xf7;" horiz-adv-x="833" 
d="M417 551q28 0 47.5 -20t19.5 -48q0 -27 -19.5 -46.5t-47.5 -19.5t-47.5 19t-19.5 47t20 48t47 20zM124 339h585v-81h-585v81zM417 179q28 0 47.5 -19.5t19.5 -47.5q0 -27 -19.5 -46.5t-47.5 -19.5t-47.5 19t-19.5 47t20 47.5t47 19.5z" />
    <glyph glyph-name="oslash" unicode="&#xf8;" horiz-adv-x="355" 
d="M134 227l84 196q-8 26 -40 26q-18 0 -31 -11.5t-13 -28.5v-182zM221 294l-83 -196q8 -25 40 -25q18 0 30.5 11t12.5 28v182zM318 120q0 -60 -38.5 -96.5t-104.5 -36.5q-41 0 -73 19l-13 -29h-68l33 77q-17 24 -17 68v280q0 60 39 96t105 36q42 0 72 -18l9 19h68l-29 -68
q17 -24 17 -68v-279z" />
    <glyph glyph-name="ugrave" unicode="&#xf9;" horiz-adv-x="369" 
d="M322 521v-521h-97v57q-56 -65 -112 -65q-68 0 -68 93v436h97v-393v-7q0 -35 26 -35q10 0 26.5 10t30.5 29v396h97zM163 570l-92 108h123l48 -108h-79z" />
    <glyph glyph-name="uacute" unicode="&#xfa;" horiz-adv-x="369" 
d="M322 521v-521h-97v57q-56 -65 -112 -65q-68 0 -68 93v436h97v-393v-7q0 -35 26 -35q10 0 26.5 10t30.5 29v396h97zM208 570h-79l47 108h124z" />
    <glyph glyph-name="ucircumflex" unicode="&#xfb;" horiz-adv-x="369" 
d="M322 521v-521h-97v57q-56 -65 -112 -65q-68 0 -68 93v436h97v-393v-7q0 -35 26 -35q10 0 26.5 10t30.5 29v396h97zM141 570h-79l75 108h96l75 -108h-79l-44 53z" />
    <glyph glyph-name="udieresis" unicode="&#xfc;" horiz-adv-x="369" 
d="M322 521v-521h-97v57q-56 -65 -112 -65q-68 0 -68 93v436h97v-393v-7q0 -35 26 -35q10 0 26.5 10t30.5 29v396h97zM74 575v98h89v-98h-89zM206 575v98h90v-98h-90z" />
    <glyph glyph-name="yacute" unicode="&#xfd;" horiz-adv-x="319" 
d="M9 521h91l60 -334h4l49 334h97l-110 -557q-14 -69 -46.5 -98.5t-95.5 -29.5q-21 0 -39 1v93h18q40 0 58 18t21 64zM183 570h-79l47 108h124z" />
    <glyph glyph-name="thorn" unicode="&#xfe;" horiz-adv-x="361" 
d="M47 -164v870h98v-226q37 48 92 48q42 0 65 -29.5t23 -86.5v-288q0 -131 -94 -131q-46 0 -86 49v-206h-98zM145 422v-325q22 -22 40 -22q40 0 40 55v269q0 46 -34 46q-24 0 -46 -23z" />
    <glyph glyph-name="ydieresis" unicode="&#xff;" horiz-adv-x="319" 
d="M9 521h91l60 -334h4l49 334h97l-110 -557q-14 -69 -46.5 -98.5t-95.5 -29.5q-21 0 -39 1v93h18q40 0 58 18t21 64zM49 575v98h89v-98h-89zM181 575v98h90v-98h-90z" />
    <glyph glyph-name="dotlessi" unicode="&#x131;" horiz-adv-x="192" 
d="M47 0v521h98v-521h-98z" />
    <glyph glyph-name="Lslash" unicode="&#x141;" horiz-adv-x="343" 
d="M60 0v285l-55 -39v93l55 39v328h109v-268l84 59v-94l-84 -59v-242h169v-102h-278z" />
    <glyph glyph-name="lslash" unicode="&#x142;" horiz-adv-x="201" 
d="M52 0v301l-47 -33v57l47 33v348h97v-297l48 32v-57l-48 -33v-351h-97z" />
    <glyph glyph-name="OE" unicode="&#x152;" horiz-adv-x="580" 
d="M154 149q0 -31 16 -49t42 -18q25 0 39.5 17t14.5 49v419q0 25 -15.5 40.5t-40.5 15.5q-24 0 -40 -15.5t-16 -40.5v-418zM285 706h265v-102h-175v-185h127v-102h-127v-211h175v-106h-265q-41 -15 -75 -15q-81 0 -124 50t-43 146v362q0 83 45 130.5t126 47.5q34 0 71 -15z
" />
    <glyph glyph-name="oe" unicode="&#x153;" horiz-adv-x="537" 
d="M37 402q0 60 39 96t105 36q53 0 91 -31q45 31 93 31q63 0 100.5 -39.5t37.5 -113.5v-133h-185v-98q0 -39 9 -56t34 -17q28 0 35.5 16t7.5 57v36h99v-39q0 -160 -140 -160q-55 0 -91 30q-37 -30 -95 -30q-63 0 -101.5 38.5t-38.5 106.5v270zM137 122q0 -21 11.5 -33
t28.5 -12q42 0 42 45v284q0 17 -11.5 27.5t-30.5 10.5q-17 0 -28.5 -10.5t-11.5 -27.5v-284zM318 329h86v53q0 62 -43 62t-43 -62v-53z" />
    <glyph glyph-name="Scaron" unicode="&#x160;" horiz-adv-x="392" 
d="M23 179l104 16q6 -105 72 -105q30 0 48.5 18.5t18.5 49.5q0 28 -15.5 56t-28.5 42t-54 55q-49 49 -72.5 76t-43 68.5t-19.5 85.5q0 76 49.5 126.5t119.5 50.5q68 0 112.5 -46.5t50.5 -128.5l-106 -15q-3 47 -16.5 67.5t-43.5 20.5q-26 0 -42 -17.5t-16 -47.5t17 -60.5
t33.5 -48t58.5 -58.5q44 -43 66.5 -70t39 -67t16.5 -87q0 -77 -48 -126.5t-121 -49.5q-80 0 -128 51.5t-52 143.5zM240 850h79l-75 -108h-96l-75 108h79l44 -53z" />
    <glyph glyph-name="scaron" unicode="&#x161;" horiz-adv-x="335" 
d="M14 141l94 21q6 -44 21 -64.5t43 -20.5q20 0 32.5 12.5t12.5 33.5q0 19 -14.5 39.5t-31 34l-55.5 43.5q-48 36 -69.5 71t-21.5 81q0 65 39.5 103.5t103.5 38.5q60 0 97.5 -36t41.5 -99l-92 -22q-11 66 -52 66q-19 0 -30.5 -12.5t-11.5 -33.5q0 -12 4 -22.5t15 -22.5
t19 -19t29 -23.5l31 -24.5q50 -42 72 -76t22 -81q0 -65 -40 -103.5t-105 -38.5q-62 0 -103 40.5t-51 114.5zM212 678h79l-75 -108h-96l-75 108h79l44 -53z" />
    <glyph glyph-name="Ydieresis" unicode="&#x178;" horiz-adv-x="343" 
d="M-12 706h110l71 -282h7l67 282h111l-127 -413v-293h-109v280zM61 747v98h89v-98h-89zM193 747v98h90v-98h-90z" />
    <glyph glyph-name="Zcaron" unicode="&#x17d;" horiz-adv-x="378" 
d="M31 0v109l195 488h-179v109h297v-102l-197 -495h197v-109h-313zM233 850h79l-75 -108h-96l-75 108h79l44 -53z" />
    <glyph glyph-name="zcaron" unicode="&#x17e;" horiz-adv-x="310" 
d="M26 0v87l159 343h-147v91h248v-86l-152 -342h152v-93h-260zM199 678h79l-75 -108h-96l-75 108h79l44 -53z" />
    <glyph glyph-name="florin" unicode="&#x192;" horiz-adv-x="406" 
d="M0 -72q16 -4 28 -4q43 0 51 50l69 408h-93v81h107l22 127q11 67 39.5 98.5t80.5 31.5q31 0 56 -8v-85q-20 5 -29 5q-43 0 -51 -50l-19 -119h99v-81h-114l-70 -417q-11 -66 -40 -97.5t-81 -31.5q-28 0 -55 8v84z" />
    <glyph glyph-name="circumflex" unicode="&#x2c6;" 
d="M206 570h-79l75 108h96l75 -108h-79l-44 53z" />
    <glyph glyph-name="caron" unicode="&#x2c7;" 
d="M294 678h79l-75 -108h-96l-75 108h79l44 -53z" />
    <glyph glyph-name="breve" unicode="&#x2d8;" 
d="M209 678q0 -25 9.5 -36.5t31.5 -11.5t31.5 11.5t9.5 36.5h64v-6q0 -104 -105 -104t-105 104v6h64z" />
    <glyph glyph-name="dotaccent" unicode="&#x2d9;" 
d="M203 573v102h94v-102h-94z" />
    <glyph glyph-name="ring" unicode="&#x2da;" 
d="M217 656q0 -13 9.5 -22.5t23.5 -9.5t23.5 9t9.5 23t-9.5 23.5t-23.5 9.5t-23.5 -9.5t-9.5 -23.5zM163 657q0 36 25.5 61.5t61.5 25.5t61.5 -25.5t25.5 -61.5q0 -37 -25.5 -62t-61.5 -25q-37 0 -62 25t-25 62z" />
    <glyph glyph-name="ogonek" unicode="&#x2db;" 
d="M307 0q-33 -50 -33 -85q0 -32 21 -56h-88q-11 24 -11 41q0 49 55 100h56z" />
    <glyph glyph-name="tilde" unicode="&#x2dc;" 
d="M374 674v-8q0 -42 -21 -66.5t-56 -24.5q-22 0 -52.5 15t-41.5 15q-25 0 -25 -27v-4h-52v8q0 42 21 66.5t56 24.5q22 0 52.5 -15t41.5 -15q25 0 25 27v4h52z" />
    <glyph glyph-name="hungarumlaut" unicode="&#x2dd;" 
d="M326 570h-57l47 108h102zM199 570h-51l40 108h101z" />
    <glyph glyph-name="endash" unicode="&#x2013;" 
d="M0 228v65h500v-65h-500z" />
    <glyph glyph-name="emdash" unicode="&#x2014;" horiz-adv-x="1000" 
d="M0 228v65h1000v-65h-1000z" />
    <glyph glyph-name="quoteleft" unicode="&#x2018;" horiz-adv-x="215" 
d="M160 581v-111h-104v111l55 125h49l-37 -125h37z" />
    <glyph glyph-name="quoteright" unicode="&#x2019;" horiz-adv-x="215" 
d="M56 595v111h104v-111l-56 -125h-48l36 125h-36z" />
    <glyph glyph-name="quotesinglbase" unicode="&#x201a;" horiz-adv-x="215" 
d="M56 0v111h104v-111l-56 -125h-48l36 125h-36z" />
    <glyph glyph-name="quotedblleft" unicode="&#x201c;" horiz-adv-x="361" 
d="M160 581v-111h-104v111l55 125h49l-37 -125h37zM306 581v-111h-105v111l56 125h49l-37 -125h37z" />
    <glyph glyph-name="quotedblright" unicode="&#x201d;" horiz-adv-x="361" 
d="M201 595v111h105v-111l-56 -125h-49l37 125h-37zM56 595v111h104v-111l-56 -125h-48l36 125h-36z" />
    <glyph glyph-name="quotedblbase" unicode="&#x201e;" horiz-adv-x="361" 
d="M56 0v111h104v-111l-56 -125h-48l36 125h-36zM201 0v111h105v-111l-56 -125h-49l37 125h-37z" />
    <glyph glyph-name="dagger" unicode="&#x2020;" horiz-adv-x="385" 
d="M247 706l-37 -194l155 35v-109l-155 40q15 -96 38 -162q-28 -107 -37 -390h-38q-7 261 -37 390q25 74 38 162l-154 -40v109l154 -35l-37 194h110z" />
    <glyph glyph-name="daggerdbl" unicode="&#x2021;" horiz-adv-x="385" 
d="M136 319q26 71 39 159l-155 -40v109l154 -35l-37 194h110l-36 -194l154 35v-109l-155 40q16 -101 39 -159q-23 -57 -39 -160l155 40v-109l-154 35l36 -194h-110l37 194l-154 -35v109l155 -40q-14 90 -39 160z" />
    <glyph glyph-name="bullet" unicode="&#x2022;" horiz-adv-x="590" 
d="M150 372q0 60 42.5 102t102.5 42q59 0 101.5 -42t42.5 -102q0 -59 -42.5 -102t-102.5 -43t-102 42.5t-42 102.5z" />
    <glyph glyph-name="ellipsis" unicode="&#x2026;" horiz-adv-x="1000" 
d="M115 0v111h104v-111h-104zM448 0v111h104v-111h-104zM782 0v111h104v-111h-104z" />
    <glyph glyph-name="perthousand" unicode="&#x2030;" horiz-adv-x="760" 
d="M227 473q0 -62 -28.5 -95t-79.5 -33q-108 0 -108 130v127q0 56 29 87t81 31q49 0 77.5 -32t28.5 -88v-127zM150 455v162q0 17 -8.5 27t-22.5 10q-13 0 -22.5 -10.5t-9.5 -26.5v-162q0 -20 9.5 -31.5t22.5 -11.5q31 0 31 43zM53 0l319 706h86l-319 -706h-86zM430 95v161
q0 17 -9 27.5t-23 10.5q-13 0 -22 -10.5t-9 -26.5v-162q0 -20 9 -32t22 -12q32 0 32 44zM506 113q0 -62 -28 -95t-80 -33q-108 0 -108 130v127q0 56 29.5 87t81.5 31q48 0 76.5 -32t28.5 -88v-127zM756 113q0 -62 -28.5 -95t-80.5 -33q-108 0 -108 130v127q0 56 29.5 87
t81.5 31q49 0 77.5 -32t28.5 -88v-127zM679 95v161q0 17 -9 27.5t-23 10.5q-13 0 -22 -10.5t-9 -26.5v-162q0 -20 9 -32t22 -12q32 0 32 44z" />
    <glyph glyph-name="guilsinglleft" unicode="&#x2039;" horiz-adv-x="231" 
d="M37 259l72 155h84l-68 -155l68 -154h-84z" />
    <glyph glyph-name="guilsinglright" unicode="&#x203a;" horiz-adv-x="231" 
d="M193 259l-72 -154h-84l68 154l-68 155h84z" />
    <glyph glyph-name="fraction" unicode="&#x2044;" horiz-adv-x="135" 
d="M-135 0l319 706h86l-319 -706h-86z" />
    <glyph glyph-name="trademark" unicode="&#x2122;" horiz-adv-x="833" 
d="M110 713h228v-46h-82v-219h-63v219h-83v46zM395 713h83l69 -176l65 176h83v-265h-56v209l-78 -209h-29l-81 209v-209h-56v265z" />
    <glyph glyph-name="minus" unicode="&#x2212;" horiz-adv-x="833" 
d="M124 340h585v-83h-585v83z" />
    <glyph glyph-name="fi" unicode="&#xfb01;" horiz-adv-x="411" 
d="M60 0v440h-55v81h55v61q0 124 113 124q29 0 56 -8v-85q-22 5 -26 5q-25 0 -35.5 -10.5t-10.5 -33.5v-53h62v-81h-62v-440h-97zM263 0v521h97v-521h-97zM263 609v97h97v-97h-97z" />
    <glyph glyph-name="fl" unicode="&#xfb02;" horiz-adv-x="411" 
d="M60 0v440h-55v81h55v61q0 124 113 124q29 0 56 -8v-85q-22 5 -26 5q-25 0 -35.5 -10.5t-10.5 -33.5v-53h62v-81h-62v-440h-97zM263 0v706h97v-706h-97z" />
    </font>
</defs>
</svg>
